<svg width="39" height="39" fill="none" xmlns="http://www.w3.org/2000/svg"><path d="M10.833 0C4.851 0 0 4.851 0 10.833v17.334C0 34.149 4.851 39 10.833 39h17.334C34.149 39 39 34.149 39 28.167V10.833C39 4.851 34.149 0 28.167 0H10.833ZM32.5 4.333a2.167 2.167 0 1 1-.002 4.335 2.167 2.167 0 0 1 .002-4.335Zm-13 4.334c5.982 0 10.833 4.85 10.833 10.833 0 5.982-4.85 10.833-10.833 10.833-5.982 0-10.833-4.85-10.833-10.833 0-5.982 4.85-10.833 10.833-10.833Zm0 4.333a6.5 6.5 0 1 0 0 13 6.5 6.5 0 0 0 0-13Z" fill="#fff"/></svg>