<svg width="98" height="98" fill="none" xmlns="http://www.w3.org/2000/svg"><path d="M98 49a49 49 0 1 0-98 0 49 49 0 0 0 98 0Z" fill="#B7ECB1"/><path d="M20.868 38.606h2.662l-7.9 18.765h-.605L6.974 38.606h2.69l5.619 13.122 5.585-13.122ZM31.328 49.892v5.247c0 .42.143.63.429.63.51-.094.985-.321 1.378-.658v1.488c-.42.282-.865.525-1.33.725-.335.13-.691.196-1.05.195-1.043 0-1.658-.41-1.846-1.23a5.31 5.31 0 0 1-3.305 1.202 2.921 2.921 0 0 1-2.792-1.826 2.863 2.863 0 0 1-.204-1.155 2.996 2.996 0 0 1 .835-2.08A5.677 5.677 0 0 1 25.828 51l3.115-1.074v-.654c0-1.478-.74-2.222-2.218-2.222-1.333 0-2.625.687-3.878 2.06v-2.695c.954-1.11 2.313-1.666 4.078-1.67a4.727 4.727 0 0 1 3.186 1.05 3.52 3.52 0 0 1 1.13 2.004c.074.698.102 1.4.087 2.103v-.01Zm-2.385 4.975v-3.653l-1.632.63c-.643.22-1.24.558-1.76.996a1.808 1.808 0 0 0 0 2.495 1.722 1.722 0 0 0 1.264.477 3.042 3.042 0 0 0 2.151-.954M37.777 38.606h-2.432v18.688h2.432V38.606ZM56.489 38.606h2.504V57.29h-2.69V42.75l-5.748 7.222h-.491L44.25 42.75V57.29h-2.676V38.606h2.532l6.21 7.675 6.173-7.675ZM70.418 49.893v5.246c0 .42.138.63.424.63.51-.094.985-.321 1.379-.658v1.488c-.42.282-.866.525-1.331.725-.335.13-.69.196-1.05.196-1.043 0-1.658-.41-1.845-1.231a5.308 5.308 0 0 1-3.306 1.202 2.899 2.899 0 0 1-2.137-.85 2.862 2.862 0 0 1-.858-2.131 2.995 2.995 0 0 1 .834-2.08A5.677 5.677 0 0 1 64.913 51l3.12-1.074v-.653c0-1.48-.744-2.223-2.223-2.223-1.332 0-2.625.687-3.878 2.06v-2.694c.954-1.11 2.314-1.667 4.078-1.67a4.718 4.718 0 0 1 3.196 1.04 3.3 3.3 0 0 1 .725.892c.204.342.341.719.406 1.111.075.699.105 1.401.09 2.104h-.01Zm-2.376 4.965v-3.654l-1.636.63a5.522 5.522 0 0 0-1.755.997 1.803 1.803 0 0 0-.029 2.494 1.73 1.73 0 0 0 1.264.477 3.062 3.062 0 0 0 2.156-.953M76.98 44.984v2.824l.133-.215c1.18-1.908 2.358-2.862 3.534-2.862.916 0 1.87.463 2.862 1.389l-1.283 2.141c-.849-.801-1.634-1.202-2.356-1.202a2.523 2.523 0 0 0-2.042 1.121 4.26 4.26 0 0 0-.863 2.662v6.448h-2.447V44.984h2.461ZM86.482 39.808a1.43 1.43 0 0 1 1.03.415 1.375 1.375 0 0 1 .425 1.016 1.46 1.46 0 0 1-1.431 1.431 1.345 1.345 0 0 1-.992-.434 1.401 1.401 0 0 1-.43-1.011 1.389 1.389 0 0 1 .43-.997 1.343 1.343 0 0 1 .992-.434l-.024.014Zm-1.207 5.175h2.438V57.29h-2.438V44.983Z" fill="#91BD9D"/><path d="M21.393 38.13h2.662l-7.899 18.764h-.606L7.494 38.13h2.695l5.619 13.122 5.585-13.122ZM31.853 49.416v5.247c0 .42.143.63.43.63.508-.096.984-.323 1.378-.659v1.488c-.42.283-.866.525-1.331.725-.336.13-.694.196-1.054.196-1.04 0-1.655-.41-1.846-1.23a5.285 5.285 0 0 1-3.3 1.201 2.914 2.914 0 0 1-2.142-.849 2.863 2.863 0 0 1-.854-2.132 2.995 2.995 0 0 1 .834-2.08 5.677 5.677 0 0 1 2.385-1.43l3.115-1.074v-.653c0-1.479-.74-2.223-2.218-2.223-1.33 0-2.623.687-3.883 2.06V45.94c.954-1.11 2.315-1.666 4.083-1.67a4.726 4.726 0 0 1 3.187 1.05c.29.253.534.554.72.892.205.341.344.718.41 1.111.073.699.102 1.401.086 2.103v-.01Zm-2.385 4.975v-3.654l-1.631.63c-.643.22-1.24.559-1.76.997a1.798 1.798 0 0 0 0 2.494 1.723 1.723 0 0 0 1.264.477 3.054 3.054 0 0 0 2.15-.954M38.296 38.13h-2.432v18.688h2.432V38.13ZM57.015 38.13h2.5v18.683h-2.686V42.275l-5.748 7.221h-.496l-5.81-7.221v14.538H42.1V38.13h2.532l6.21 7.674 6.173-7.674ZM70.937 49.415v5.247c0 .42.143.63.43.63.509-.095.984-.322 1.378-.659v1.488c-.42.283-.866.525-1.331.725-.335.13-.69.196-1.05.196-1.042 0-1.658-.41-1.845-1.23a5.309 5.309 0 0 1-3.306 1.201 2.918 2.918 0 0 1-2.141-.849 2.862 2.862 0 0 1-.854-2.132 2.995 2.995 0 0 1 .834-2.08 5.677 5.677 0 0 1 2.385-1.43l3.115-1.074v-.653c0-1.479-.74-2.223-2.218-2.223-1.33 0-2.622.687-3.878 2.06v-2.694c.954-1.11 2.314-1.666 4.078-1.67a4.727 4.727 0 0 1 3.196 1.04c.586.526.983 1.23 1.13 2.004.074.698.102 1.4.087 2.103h-.01Zm-2.375 4.965v-3.653l-1.632.63c-.643.22-1.24.558-1.76.996a1.798 1.798 0 0 0-.024 2.495 1.724 1.724 0 0 0 1.264.477 3.052 3.052 0 0 0 2.152-.954M77.505 44.507v2.823l.134-.214c1.176-1.908 2.355-2.862 3.534-2.862.916 0 1.87.463 2.862 1.388l-1.283 2.141c-.844-.8-1.631-1.201-2.352-1.201a2.524 2.524 0 0 0-2.04 1.12 4.23 4.23 0 0 0-.864 2.662v6.449h-2.447V44.507h2.456ZM87.002 39.332a1.43 1.43 0 0 1 1.03.415 1.36 1.36 0 0 1 .43 1.016 1.386 1.386 0 0 1-.43 1.016 1.43 1.43 0 0 1-1.03.43 1.345 1.345 0 0 1-.988-.435 1.4 1.4 0 0 1-.316-1.553c.074-.171.181-.326.316-.455a1.346 1.346 0 0 1 .988-.434ZM85.8 44.507h2.447v12.306h-2.433L85.8 44.508Z" fill="#fff"/></svg>